<mxfile host="app.diagrams.net" modified="2023-03-01T17:41:06.800Z" agent="5.0 (Macintosh; Intel Mac OS X 10_15_7) AppleWebKit/605.1.15 (KHTML, like Gecko) Version/16.4 Safari/605.1.15" etag="UezF2Eq294jO131KzwT5" version="20.8.23" type="github">
  <diagram name="Page-1" id="5YjREav9CT_JrQ7Qp5IU">
    <mxGraphModel dx="1393" dy="886" grid="1" gridSize="10" guides="1" tooltips="1" connect="1" arrows="1" fold="1" page="1" pageScale="1" pageWidth="827" pageHeight="1169" math="0" shadow="0">
      <root>
        <mxCell id="0" />
        <mxCell id="1" parent="0" />
        <mxCell id="HZCOo42I6kf1eYd5vVdZ-11" value="" style="rounded=0;whiteSpace=wrap;html=1;" vertex="1" parent="1">
          <mxGeometry x="30" y="180" width="550" height="340" as="geometry" />
        </mxCell>
        <mxCell id="HZCOo42I6kf1eYd5vVdZ-1" value="VPC" style="sketch=0;outlineConnect=0;gradientColor=none;html=1;whiteSpace=wrap;fontSize=12;fontStyle=0;shape=mxgraph.aws4.group;grIcon=mxgraph.aws4.group_vpc;strokeColor=#879196;fillColor=none;verticalAlign=top;align=left;spacingLeft=30;fontColor=#879196;dashed=0;" vertex="1" parent="1">
          <mxGeometry x="50" y="240" width="250" height="250" as="geometry" />
        </mxCell>
        <mxCell id="HZCOo42I6kf1eYd5vVdZ-4" value="" style="endArrow=classic;startArrow=classic;html=1;rounded=0;entryX=0.011;entryY=0.589;entryDx=0;entryDy=0;entryPerimeter=0;" edge="1" parent="1" source="HZCOo42I6kf1eYd5vVdZ-1" target="HZCOo42I6kf1eYd5vVdZ-5">
          <mxGeometry width="50" height="50" relative="1" as="geometry">
            <mxPoint x="310" y="350" as="sourcePoint" />
            <mxPoint x="400" y="360" as="targetPoint" />
            <Array as="points">
              <mxPoint x="400" y="363" />
            </Array>
          </mxGeometry>
        </mxCell>
        <mxCell id="HZCOo42I6kf1eYd5vVdZ-5" value="" style="image;image=img/lib/atlassian/Confluence_Logo.svg;html=1;" vertex="1" parent="1">
          <mxGeometry x="463" y="310" width="90" height="90" as="geometry" />
        </mxCell>
        <mxCell id="HZCOo42I6kf1eYd5vVdZ-6" value="Confluence" style="text;html=1;strokeColor=none;fillColor=none;align=center;verticalAlign=middle;whiteSpace=wrap;rounded=0;" vertex="1" parent="1">
          <mxGeometry x="478" y="400" width="60" height="30" as="geometry" />
        </mxCell>
        <mxCell id="HZCOo42I6kf1eYd5vVdZ-8" value="Amazon SageMaker" style="sketch=0;outlineConnect=0;fontColor=#232F3E;gradientColor=none;strokeColor=#ffffff;fillColor=#232F3E;dashed=0;verticalLabelPosition=middle;verticalAlign=bottom;align=center;html=1;whiteSpace=wrap;fontSize=10;fontStyle=1;spacing=3;shape=mxgraph.aws4.productIcon;prIcon=mxgraph.aws4.sagemaker;" vertex="1" parent="1">
          <mxGeometry x="130" y="320" width="80" height="110" as="geometry" />
        </mxCell>
        <mxCell id="HZCOo42I6kf1eYd5vVdZ-12" value="Home Office Intranet&lt;br&gt;" style="text;html=1;strokeColor=none;fillColor=none;align=center;verticalAlign=middle;whiteSpace=wrap;rounded=0;" vertex="1" parent="1">
          <mxGeometry x="210" y="190" width="190" height="30" as="geometry" />
        </mxCell>
      </root>
    </mxGraphModel>
  </diagram>
</mxfile>
